<?xml version="1.0" encoding="iso-8859-1"?>
<!-- Generator: Adobe Illustrator 19.0.0, SVG Export Plug-In . SVG Version: 6.00 Build 0)  -->
<svg version="1.1" id="Layer_1" xmlns="http://www.w3.org/2000/svg" xmlns:xlink="http://www.w3.org/1999/xlink" x="0px" y="0px"
	 viewBox="0 0 503.607 503.607" style="enable-background:new 0 0 503.607 503.607;" xml:space="preserve">
<g transform="translate(1 1)">
	<path style="fill:#FFDD09;" d="M435.354,284.377c0-115.83-82.256-209.836-184.656-209.836S66.043,168.548,66.043,284.377
		s83.095,209.836,184.656,209.836S435.354,400.207,435.354,284.377"/>
	<path style="fill:#FFFFFF;" d="M66.043,284.377c0-115.83,83.095-209.836,184.656-209.836
		c-115.829,0-209.836,94.007-209.836,209.836s94.007,209.836,209.836,209.836C149.138,494.213,66.043,400.207,66.043,284.377"/>
	<path style="fill:#FD9808;" d="M250.698,74.541c102.4,0,184.656,94.007,184.656,209.836s-82.256,209.836-184.656,209.836
		c115.83,0,209.836-94.007,209.836-209.836S366.528,74.541,250.698,74.541"/>
	<polygon style="fill:#54C9FD;" points="208.731,40.967 292.666,40.967 292.666,7.393 208.731,7.393 	"/>
	<path style="fill:#33A9F8;" d="M250.698,74.541c5.875,0,10.911,0,16.787,0.839V40.967h-33.574V75.38
		C239.787,75.38,244.823,74.541,250.698,74.541"/>
	<path style="fill:#54C9FD;" d="M102.134,88.81l-47.843,47.843l-6.715-6.715c-9.233-9.233-9.233-25.18,0-34.413l13.43-13.43
		c9.233-9.233,25.18-9.233,34.413,0L102.134,88.81z"/>
	<path style="fill:#33A9F8;" d="M102.134,136.652c4.197-4.197,8.393-7.554,12.59-11.751l-24.341-24.341l-23.502,23.502
		l24.341,24.341C94.58,144.207,97.938,140.01,102.134,136.652"/>
	<path style="fill:#54C9FD;" d="M446.266,136.652L398.423,88.81l6.715-6.715c9.233-9.233,25.18-9.233,34.413,0l12.59,12.59
		c9.233,9.233,9.233,25.18,0,34.413L446.266,136.652z"/>
	<path style="fill:#33A9F8;" d="M399.262,136.652c4.197,4.197,7.554,8.393,11.751,12.59l24.341-24.341L411.852,101.4l-25.18,23.502
		C390.869,128.259,395.066,132.456,399.262,136.652"/>
	<path style="fill:#54C9FD;" d="M275.879,284.377c0-14.269-10.911-25.18-25.18-25.18c-14.269,0-25.18,10.911-25.18,25.18
		s10.911,25.18,25.18,25.18C264.967,309.557,275.879,298.646,275.879,284.377"/>
	<path d="M250.698,502.607c-120.026,0-218.229-97.364-218.229-218.229c0-120.026,98.203-218.23,218.229-218.23
		s218.23,98.203,218.23,218.23C468.928,405.243,370.725,502.607,250.698,502.607z M250.698,82.934
		c-110.793,0-201.443,90.649-201.443,201.443S139.905,485.82,250.698,485.82s201.443-90.649,201.443-201.443
		S361.492,82.934,250.698,82.934z"/>
	<path d="M292.666,49.361h-83.934c-5.036,0-8.393-3.357-8.393-8.393V7.393c0-5.036,3.357-8.393,8.393-8.393h83.934
		c5.036,0,8.393,3.357,8.393,8.393v33.574C301.059,46.003,297.702,49.361,292.666,49.361z M217.125,32.574h67.148V15.787h-67.148
		V32.574z"/>
	<path d="M267.485,83.774C267.485,83.774,266.646,83.774,267.485,83.774c-12.59-0.839-20.984-0.839-32.734,0
		c-2.518,0-5.036-0.839-6.715-2.518c-1.679-0.839-2.518-3.357-2.518-5.875V40.967c0-5.036,3.357-8.393,8.393-8.393h33.574
		c5.036,0,8.393,3.357,8.393,8.393V75.38c0,2.518-0.839,4.197-2.518,5.875C271.682,82.934,270.003,83.774,267.485,83.774z
		 M250.698,66.148c2.518,0,5.875,0,8.393,0V49.361h-16.787v16.787C244.823,66.148,248.18,66.148,250.698,66.148z"/>
	<path d="M55.131,145.046c-2.518,0-4.197-0.839-5.875-2.518l-6.715-6.715c-12.59-12.59-12.59-33.574,0-46.164l13.43-13.43
		c12.59-12.59,33.574-12.59,46.164,0l5.875,6.715c3.357,3.357,3.357,8.393,0,11.751l-47.843,47.843
		C59.328,144.207,56.81,145.046,55.131,145.046z M78.633,83.774c-4.197,0-8.393,1.679-10.911,5.036l-13.43,13.43
		c-5.875,5.875-5.875,15.948,0,22.662l0.839,0.839l35.252-35.252l-0.839-2.518C87.026,85.452,82.83,83.774,78.633,83.774z"/>
	<path d="M91.223,156.797c-2.518,0-4.197-0.839-5.875-2.518l-24.341-24.341c-3.357-3.357-3.357-8.393,0-11.751l23.502-23.502
		c3.357-3.357,8.393-3.357,11.751,0l24.341,24.341c1.679,1.679,2.518,4.197,2.518,5.875c0,2.518-0.839,4.197-3.357,5.875
		c-4.197,4.197-8.393,7.554-11.751,10.911c-3.357,3.357-6.715,7.554-10.911,11.751C95.42,155.957,93.741,156.797,91.223,156.797
		L91.223,156.797z M78.633,124.062l11.751,11.751c1.679-2.518,4.197-4.197,5.875-5.875c1.679-1.679,4.197-4.197,5.875-5.875
		l-11.751-11.751L78.633,124.062z"/>
	<path d="M446.266,145.046c-2.518,0-4.197-0.839-5.875-2.518l-47.003-47.843c-3.357-3.357-3.357-8.393,0-11.751l6.715-6.715
		c12.59-12.59,33.574-12.59,47.003,0l12.59,12.59c12.59,12.59,12.59,33.574,0,47.003l-7.554,6.715
		C450.462,144.207,448.784,145.046,446.266,145.046z M411.013,88.81l35.252,35.252l0.839-0.839c6.715-6.715,6.715-16.787,0-22.662
		l-12.59-12.59C427.8,82.095,417.728,82.095,411.013,88.81L411.013,88.81z"/>
	<path d="M410.174,156.797L410.174,156.797c-2.518,0-5.036-0.839-6.715-3.357c-4.197-4.197-7.554-8.393-10.911-11.751
		c-3.357-3.357-7.554-6.715-11.751-10.911c-1.679-1.679-2.518-3.357-3.357-5.875c0-2.518,0.839-4.197,2.518-5.875l24.341-24.341
		c3.357-3.357,8.393-3.357,11.751,0l23.502,23.502c1.679,1.679,2.518,3.357,2.518,5.875s-0.839,4.197-2.518,5.875l-24.341,24.341
		C414.37,155.957,412.692,156.797,410.174,156.797z M399.262,124.902c2.518,1.679,4.197,4.197,5.875,5.875
		c1.679,1.679,4.197,4.197,5.875,5.875l11.751-11.751l-11.751-11.751L399.262,124.902z"/>
	<path id="SVGCleanerId_0" d="M250.698,317.951c-18.466,0-33.574-15.108-33.574-33.574s15.108-33.574,33.574-33.574
		s33.574,15.108,33.574,33.574S269.164,317.951,250.698,317.951z M250.698,267.59c-9.233,0-16.787,7.554-16.787,16.787
		c0,9.233,7.554,16.787,16.787,16.787c9.233,0,16.787-7.554,16.787-16.787C267.485,275.144,259.931,267.59,250.698,267.59z"/>
	<path d="M250.698,267.59c-5.036,0-8.393-3.357-8.393-8.393V141.689c0-5.036,3.357-8.393,8.393-8.393
		c5.036,0,8.393,3.357,8.393,8.393v117.508C259.092,264.233,255.734,267.59,250.698,267.59z"/>
	<path d="M250.698,108.115c-5.036,0-8.393-3.357-8.393-8.393v-25.18c0-5.036,3.357-8.393,8.393-8.393
		c5.036,0,8.393,3.357,8.393,8.393v25.18C259.092,104.757,255.734,108.115,250.698,108.115z"/>
	<path d="M250.698,502.607c-5.036,0-8.393-3.357-8.393-8.393v-25.18c0-5.036,3.357-8.393,8.393-8.393
		c5.036,0,8.393,3.357,8.393,8.393v25.18C259.092,499.249,255.734,502.607,250.698,502.607z"/>
	<path d="M460.534,292.77h-25.18c-5.036,0-8.393-3.357-8.393-8.393c0-5.036,3.357-8.393,8.393-8.393h25.18
		c5.036,0,8.393,3.357,8.393,8.393C468.928,289.413,465.57,292.77,460.534,292.77z"/>
	<path d="M66.043,292.77h-25.18c-5.036,0-8.393-3.357-8.393-8.393c0-5.036,3.357-8.393,8.393-8.393h25.18
		c5.036,0,8.393,3.357,8.393,8.393C74.436,289.413,71.079,292.77,66.043,292.77z"/>
	<path d="M376.6,166.869c-2.518,0-4.197-0.839-5.875-2.518c-3.357-3.357-3.357-8.393,0-11.751l22.662-22.662
		c3.357-3.357,8.393-3.357,11.751,0s3.357,8.393,0,11.751l-22.662,22.662C380.797,166.029,379.118,166.869,376.6,166.869z"/>
	<path d="M102.134,441.334c-2.518,0-4.197-0.839-5.875-2.518c-3.357-3.357-3.357-8.393,0-11.751l22.662-22.662
		c3.357-3.357,8.393-3.357,11.751,0s3.357,8.393,0,11.751l-22.662,22.662C106.331,440.495,104.652,441.334,102.134,441.334z"/>
	<path d="M399.262,441.334c-2.518,0-4.197-0.839-5.875-2.518l-22.662-22.662c-3.357-3.357-3.357-8.393,0-11.751
		s8.393-3.357,11.751,0l22.662,22.662c3.357,3.357,3.357,8.393,0,11.751C403.459,440.495,400.941,441.334,399.262,441.334z"/>
	<path d="M124.797,166.869c-2.518,0-4.197-0.839-5.875-2.518l-22.662-22.662c-3.357-3.357-3.357-8.393,0-11.751
		c3.357-3.357,8.393-3.357,11.751,0l22.662,22.662c3.357,3.357,3.357,8.393,0,11.751
		C128.993,166.029,127.315,166.869,124.797,166.869z"/>
	<g>
		<path id="SVGCleanerId_0_1_" d="M250.698,317.951c-18.466,0-33.574-15.108-33.574-33.574s15.108-33.574,33.574-33.574
			s33.574,15.108,33.574,33.574S269.164,317.951,250.698,317.951z M250.698,267.59c-9.233,0-16.787,7.554-16.787,16.787
			c0,9.233,7.554,16.787,16.787,16.787c9.233,0,16.787-7.554,16.787-16.787C267.485,275.144,259.931,267.59,250.698,267.59z"/>
	</g>
</g>
<g>
</g>
<g>
</g>
<g>
</g>
<g>
</g>
<g>
</g>
<g>
</g>
<g>
</g>
<g>
</g>
<g>
</g>
<g>
</g>
<g>
</g>
<g>
</g>
<g>
</g>
<g>
</g>
<g>
</g>
</svg>
